<svg xmlns="http://www.w3.org/2000/svg" viewBox="0 0 260 260"><defs/><defs><style>.cls-1{fill:#0df700}</style></defs><g id="Capa_2" data-name="Capa 2"><g id="Capa_1-2" data-name="Capa 1"><rect width="260" height="260" class="cls-1" rx="130"/><circle cx="130" cy="130" r="106.3" fill="#5c00d3"/><path d="M175.4 91c-.8.7-5 16.3-1.2-6 1.1-6.3-2.3-11.3-7-15.1a61.2 61.2 0 00-46-10.7c-10.4 1.5-23.5 5-30.6 13.3a15.5 15.5 0 00-3.8 12.6c3.8 22.2-.4 6.6-1.2 6 0 0-6.8 66.3-5 72.7 1.7 5.3 29.6 24 38.7 29.9l4.4 13.8-1.6-12s-4-35.3-3.7-62.3c0 0-23-18.5-24.2-20.5s0-2.5-1.3-4.3c0 0 30.5 15.8 30.5 17s2 28 2.4 29.3 4.7 5 4.7 5 4.2-3.7 4.6-5 2.4-28.2 2.4-29.3 30.5-17 30.5-17c-1.2 1.8 0 2.3-1.2 4.3s-24.3 20.5-24.3 20.5c.2 15.6-1 37.6-2.2 48.8l-3.3 25.5 4.3-13.6c8.7-5.6 37.4-24.7 39-30.1 1.9-6.5-5-72.7-5-72.7zm-51.5-28.5c-6 2.6-12.4 5.3-17.5 9.5a22.3 22.3 0 00-7 10.2A27.1 27.1 0 0098 91c0 1.5 1 4 .4 5.5a.9.9 0 01-1.6.3C76.7 69.8 122.5 63 126.5 61.4z" class="cls-1"/></g></g></svg>